<svg width="13" height="13" viewBox="0 0 13 13" fill="none" xmlns="http://www.w3.org/2000/svg">
<path d="M5.56371 0.557463C5.93053 -0.185783 6.99037 -0.185781 7.35719 0.557465L8.57892 3.03297C8.72458 3.32811 9.00615 3.53268 9.33186 3.58001L12.0637 3.97698C12.884 4.09616 13.2115 5.10413 12.618 5.68267L10.6411 7.60958C10.4055 7.83932 10.2979 8.17032 10.3535 8.49471L10.8202 11.2156C10.9603 12.0325 10.1029 12.6554 9.36926 12.2697L6.92579 10.9851C6.63447 10.832 6.28643 10.832 5.99511 10.9851L3.55164 12.2697C2.81801 12.6554 1.96058 12.0325 2.10069 11.2156L2.56735 8.49471C2.62299 8.17032 2.51544 7.83932 2.27975 7.60958L0.302946 5.68267C-0.290571 5.10413 0.0369397 4.09616 0.85716 3.97698L3.58904 3.58001C3.91475 3.53268 4.19632 3.32811 4.34198 3.03297L5.56371 0.557463Z" fill="#BFBFBF"/>
</svg>
