<svg width="24" height="24" viewBox="0 0 24 24" fill="none" xmlns="http://www.w3.org/2000/svg">
<path fill-rule="evenodd" clip-rule="evenodd" d="M15.2778 3.38418C13.2821 2.21812 10.8173 2.19956 8.80431 3.33543C8.56381 3.47114 8.25884 3.38619 8.12313 3.14569C7.98743 2.90519 8.07238 2.60022 8.31288 2.46452C10.6356 1.1539 13.4796 1.17531 15.7823 2.52076C18.085 3.86621 19.5 6.33327 19.4986 9.00023L18.9986 8.99997H19.4986V9.00023V13C19.4986 13.2761 19.2747 13.5 18.9986 13.5C18.7225 13.5 18.4986 13.2761 18.4986 13V8.99997L18.4986 8.99972C18.4998 6.68836 17.2734 4.55023 15.2778 3.38418ZM6.00937 5.33569C6.25474 5.46237 6.35096 5.76397 6.22429 6.00934C5.74707 6.93369 5.49869 7.95908 5.5 8.99934L5.5 8.99997L5.5 14C5.5 14.9793 5.09777 15.8647 4.44949 16.5H17C17.2761 16.5 17.5 16.7238 17.5 17C17.5 17.2761 17.2761 17.5 17 17.5H2C1.72386 17.5 1.5 17.2761 1.5 17C1.5 16.7238 1.72386 16.5 2 16.5C3.38071 16.5 4.5 15.3807 4.5 14V9.00022M10.0191 20.5675C10.258 20.4289 10.5639 20.5102 10.7025 20.7491C10.9708 21.2117 11.4652 21.4964 12 21.4964C12.5348 21.4964 13.0292 21.2117 13.2975 20.7491C13.4361 20.5102 13.742 20.4289 13.9809 20.5675C14.2197 20.706 14.3011 21.012 14.1625 21.2509C13.7153 22.0219 12.8913 22.4964 12 22.4964C11.1087 22.4964 10.2847 22.0219 9.8375 21.2509C9.69894 21.012 9.78025 20.706 10.0191 20.5675Z" fill="#414141"/>
<path fill-rule="evenodd" clip-rule="evenodd" d="M0.646447 0.646447C0.841709 0.451184 1.15829 0.451184 1.35355 0.646447L23.3536 22.6464C23.5488 22.8417 23.5488 23.1583 23.3536 23.3536C23.1583 23.5488 22.8417 23.5488 22.6464 23.3536L0.646447 1.35355C0.451184 1.15829 0.451184 0.841709 0.646447 0.646447Z" fill="#414141"/>
</svg>
